<svg id="Layer_1" data-name="Layer 1" xmlns="http://www.w3.org/2000/svg" xmlns:xlink="http://www.w3.org/1999/xlink" viewBox="0 0 1531.12 1442.06"><defs><style>.cls-1{fill:url(#linear-gradient);}.cls-2{fill:url(#linear-gradient-2);}.cls-3{fill:url(#linear-gradient-3);}.cls-4{fill:url(#linear-gradient-4);}.cls-5{fill:url(#linear-gradient-5);}.cls-6{fill:url(#linear-gradient-6);}.cls-7{fill:url(#Orange_Yellow);}.cls-8{fill:url(#linear-gradient-10);}.cls-9{fill:url(#linear-gradient-11);}.cls-10{fill:url(#linear-gradient-12);}.cls-11{fill:url(#linear-gradient-13);}</style><linearGradient id="linear-gradient" x1="95.8" y1="564.92" x2="1197.74" y2="564.92" gradientUnits="userSpaceOnUse"><stop offset="0" stop-color="#2484c6"/><stop offset="1" stop-color="#83a7af"/></linearGradient><linearGradient id="linear-gradient-2" x1="380.6" y1="382.62" x2="1581.56" y2="382.62" gradientUnits="userSpaceOnUse"><stop offset="0.18" stop-color="#231f20" stop-opacity="0.4"/><stop offset="1" stop-color="#fff"/></linearGradient><linearGradient id="linear-gradient-3" x1="93.79" y1="1236.56" x2="298.21" y2="1236.56" gradientUnits="userSpaceOnUse"><stop offset="0.18" stop-color="#245348"/><stop offset="1" stop-color="#8eb79b"/></linearGradient><linearGradient id="linear-gradient-4" x1="196" y1="515.53" x2="451.52" y2="515.53" xlink:href="#linear-gradient-3"/><linearGradient id="linear-gradient-5" x1="677.79" y1="621.44" x2="1090.33" y2="621.44" xlink:href="#linear-gradient-3"/><linearGradient id="linear-gradient-6" x1="813.02" y1="1296.23" x2="942.7" y2="1296.23" xlink:href="#linear-gradient-3"/><linearGradient id="Orange_Yellow" x1="196" y1="515.53" x2="451.52" y2="515.53" gradientUnits="userSpaceOnUse"><stop offset="0" stop-color="#fff33b"/><stop offset="0.04" stop-color="#fee72e"/><stop offset="0.12" stop-color="#fed51b"/><stop offset="0.2" stop-color="#fdca10"/><stop offset="0.28" stop-color="#fdc70c"/><stop offset="0.67" stop-color="#f3903f"/><stop offset="0.89" stop-color="#ed683c"/><stop offset="1" stop-color="#e93e3a"/></linearGradient><linearGradient id="linear-gradient-10" x1="425.97" y1="689.97" x2="783.7" y2="689.97" xlink:href="#linear-gradient-3"/><linearGradient id="linear-gradient-11" x1="888.5" y1="1056.31" x2="1394.4" y2="1056.31" gradientUnits="userSpaceOnUse"><stop offset="0.18" stop-color="#f6893b"/><stop offset="1" stop-color="#d93227"/></linearGradient><linearGradient id="linear-gradient-12" x1="813.02" y1="1296.23" x2="942.7" y2="1296.23" gradientUnits="userSpaceOnUse"><stop offset="0" stop-color="#fff"/><stop offset="0" stop-color="#231f20"/></linearGradient><linearGradient id="linear-gradient-13" x1="1286" y1="850.73" x2="1448.6" y2="850.73" xlink:href="#linear-gradient-11"/></defs><rect class="cls-1" x="95.8" y="311.76" width="1101.94" height="506.32" rx="33.34"/><path class="cls-2" d="M1581.56,359.36v93H380.6v-93c0-25.7,17.92-46.52,40-46.52H1541.53C1563.64,312.84,1581.56,333.66,1581.56,359.36Z" transform="translate(-352.1 -267.55)"/><rect class="cls-3" x="93.79" y="1190.04" width="204.42" height="93.04"/><ellipse class="cls-4" cx="323.76" cy="515.53" rx="127.76" ry="116.3"/><polygon class="cls-5" points="1090.33 817.89 783.7 817.89 677.79 666.42 834.81 424.99 1090.33 817.89"/><polygon class="cls-6" points="834.3 1237.22 942.7 1335.9 939.48 1338.81 813.02 1355.23 831.07 1240.13 834.3 1237.22"/><ellipse class="cls-4" cx="323.76" cy="515.53" rx="127.76" ry="116.3"/><polygon class="cls-5" points="1090.33 817.89 783.7 817.89 677.79 666.42 834.81 424.99 1090.33 817.89"/><polygon class="cls-5" points="1090.33 817.89 783.7 817.89 677.79 666.42 834.81 424.99 1090.33 817.89"/><ellipse class="cls-7" cx="323.76" cy="515.53" rx="127.76" ry="116.3"/><polygon class="cls-8" points="783.7 817.89 425.97 817.89 604.84 562.04 677.79 666.42 783.7 817.89"/><polygon class="cls-9" points="888.5 1187.89 1286 826.06 1394.4 924.74 996.9 1286.56 888.5 1187.89"/><polygon class="cls-10" points="942.7 1335.9 939.48 1338.81 813.02 1355.23 831.07 1240.13 834.3 1237.22 942.7 1335.9"/><polygon class="cls-11" points="1286 826.06 1340.2 776.73 1448.6 875.4 1394.4 924.74 1286 826.06"/><rect class="cls-3" x="93.79" y="1190.04" width="204.42" height="93.04"/><ellipse cx="124.57" cy="93.04" rx="25.55" ry="23.26"/><ellipse cx="204.42" cy="93.04" rx="25.55" ry="23.26"/><ellipse cx="281.08" cy="93.04" rx="25.55" ry="23.26"/><path d="M939.81,1151.39H454.31c-14.11,0-25.55,10.42-25.55,23.26s11.44,23.26,25.55,23.26h485.5c14.11,0,25.55-10.41,25.55-23.26S953.92,1151.39,939.81,1151.39Z" transform="translate(-352.1 -267.55)"/><path d="M939.81,1244.43H454.31c-14.11,0-25.55,10.41-25.55,23.26S440.2,1291,454.31,1291h485.5c14.11,0,25.55-10.42,25.55-23.26S953.92,1244.43,939.81,1244.43Z" transform="translate(-352.1 -267.55)"/><path d="M939.81,1337.47H454.31c-14.11,0-25.55,10.41-25.55,23.25S440.2,1384,454.31,1384h485.5c14.11,0,25.55-10.41,25.55-23.26S953.92,1337.47,939.81,1337.47Z" transform="translate(-352.1 -267.55)"/><path d="M1246.44,1151.39H1042c-14.11,0-25.55,10.42-25.55,23.26s11.44,23.26,25.55,23.26h204.42c14.11,0,25.55-10.41,25.55-23.26S1260.55,1151.39,1246.44,1151.39Z" transform="translate(-352.1 -267.55)"/><path d="M1246.44,1244.43H1042c-14.11,0-25.55,10.41-25.55,23.26S1027.91,1291,1042,1291h204.42c14.11,0,25.55-10.42,25.55-23.26S1260.55,1244.43,1246.44,1244.43Z" transform="translate(-352.1 -267.55)"/><path d="M658.73,1430.5H454.31c-14.11,0-25.55,10.41-25.55,23.26v93c0,12.84,11.44,23.26,25.55,23.26H658.73c14.11,0,25.55-10.42,25.55-23.26v-93C684.28,1440.91,672.84,1430.5,658.73,1430.5Zm-25.55,93H479.87V1477H633.18Z" transform="translate(-352.1 -267.55)"/><path d="M939.81,1430.5H735.39c-14.11,0-25.55,10.41-25.55,23.26S721.28,1477,735.39,1477H939.81c14.11,0,25.55-10.41,25.55-23.26S953.92,1430.5,939.81,1430.5Z" transform="translate(-352.1 -267.55)"/><path d="M1093.12,1337.47H1042c-14.11,0-25.55,10.41-25.55,23.25S1027.91,1384,1042,1384h51.1c14.11,0,25.55-10.41,25.55-23.26S1107.23,1337.47,1093.12,1337.47Z" transform="translate(-352.1 -267.55)"/><path d="M1169.78,1384h25.55c14.11,0,25.55-10.41,25.55-23.26s-11.44-23.25-25.55-23.25h-25.55c-14.11,0-25.55,10.41-25.55,23.25S1155.67,1384,1169.78,1384Z" transform="translate(-352.1 -267.55)"/><path d="M1860.14,1026.9,1824,994c-30-27.19-78.44-27.19-108.4,0l-85.86,78.15V337.33c-.06-38.52-34.34-69.73-76.66-69.78H428.76c-42.31.05-76.6,31.26-76.66,69.78v1302.5c.06,38.52,34.35,69.73,76.66,69.78h1124.3c42.32,0,76.6-31.26,76.66-69.78V1337.47a20.54,20.54,0,0,0-.13-2.07l230.55-209.82c30.19-27.12,31-71,1.17-98.43A1,1,0,0,0,1860.14,1026.9ZM403.21,337.33c0-12.84,11.45-23.24,25.55-23.26h1124.3c14.11,0,25.54,10.42,25.56,23.26V407.1H403.21Zm1175.41,1302.5c0,12.84-11.45,23.24-25.56,23.26H428.76c-14.1,0-25.53-10.42-25.55-23.26V453.62H1578.62v665L1173.55,1487.4a22.52,22.52,0,0,0-7.25,13.14l-18,115.13c-2,12.7,7.68,24.48,21.63,26.31a28.16,28.16,0,0,0,3.67.24,25.65,25.65,0,0,0,3.61-.24l126.48-16.42a26.57,26.57,0,0,0,14.44-6.6l260.54-237.13Zm-350.87-136,18-16.45,72.28,65.79L1300,1569.62Zm18,82.23-42.16,5.49,6-38.38Zm108.44-65.8L1282,1454.49l361.35-328.91,72.28,65.79Zm397.49-361.82-72.28-65.8,18.08-16.42,72.25,65.76Zm72.25-65.8-18,16.46-72.28-65.79,18.07-16.43a27.37,27.37,0,0,1,36.13,0l36.12,32.88A21.81,21.81,0,0,1,1824,1092.66Z" transform="translate(-352.1 -267.55)"/><path d="M454.31,1104.87h1073.2c14.11,0,25.55-10.41,25.55-23.25V569.92c0-12.85-11.44-23.26-25.55-23.26H454.31c-14.11,0-25.55,10.41-25.55,23.26v511.7C428.76,1094.46,440.2,1104.87,454.31,1104.87Zm230-325.62c-14.11,0-25.55,10.41-25.55,23.26v66.84C604.08,856.5,571.21,805.76,585.32,756s69.86-79.67,124.52-66.83,87.52,63.59,73.41,113.35c-9.3,32.77-37.41,58.36-73.41,66.82V802.51C709.84,789.66,698.4,779.25,684.28,779.25ZM833,1058.36,965.36,869.09l51,72.91a2.75,2.75,0,0,0,.32.44l81,115.92Zm325.22,0-90-128.68,127-195.32,210.71,324ZM479.87,593.18H1502v465.18h-36.54L1217.31,676.88c-7.16-11-22.8-14.72-34.94-8.21a24.45,24.45,0,0,0-9,8.21L1037.55,885.69l-50.63-72.4c-7.57-10.83-23.37-14-35.27-7.14a24.61,24.61,0,0,0-7.85,7.14L772.47,1058.36H709.84V916.83C793.33,904,849.57,832,835.45,756S742.22,628.78,658.73,641.62,519,726.49,533.12,802.48C544,861.05,594.4,906.93,658.73,916.83v51.54L621.81,946c-11.75-7.13-27.62-4.24-35.45,6.45s-4.66,25.14,7.09,32.27h0l65.28,39.6v34.08H479.87Z" transform="translate(-352.1 -267.55)"/><path d="M1408.43,1372.27a21.81,21.81,0,0,0,0,32.89,27.37,27.37,0,0,0,36.13,0l216.82-197.36c9.8-9.24,9.52-24-.63-32.89a27.38,27.38,0,0,0-35.5,0Z" transform="translate(-352.1 -267.55)"/></svg>