<svg fill="#e69b00" xmlns="http://www.w3.org/2000/svg"  viewBox="0 0 64 64" width="96px" height="96px"><path d="M55.68,36.83c0.32,0.45,0.41,1.02,0.22,1.57C52.59,47.73,43.72,54,33.83,54c-12.9,0-23.4-10.5-23.4-23.41	c0-11.02,7.83-20.65,18.61-22.9c0.12-0.03,0.24-0.04,0.36-0.04c0.65,0,1.23,0.37,1.53,0.96c0.3,0.61,0.24,1.33-0.19,1.89	C28.25,13.62,27,17,27,23c0.44,5.97,3.66,11.21,9,14c2.42,1.23,5.62,1.82,8.38,1.82c3.14,0,6.24-0.86,8.96-2.48	c0.27-0.17,0.58-0.25,0.9-0.25C54.81,36.09,55.35,36.36,55.68,36.83z M33.83,50.68c7.04,0,13.51-3.7,17.13-9.61	c-2.11,0.71-4.31,1.07-6.58,1.07c-11.45,0-20.77-9.32-20.77-20.77c0-3.2,0.73-6.31,2.12-9.14c-7.17,3.17-11.98,10.38-11.98,18.36	C13.75,41.67,22.76,50.68,33.83,50.68z"/></svg>