<svg fill="#d8860b"  xmlns="http://www.w3.org/2000/svg"  viewBox="0 0 50 50" width="64px" height="64px"><path d="M41.67,30.97c-0.06,0.168-0.122,0.335-0.187,0.5C39.008,37.798,32.832,42.3,25.64,42.3c-9.37,0-17-7.63-17-17	c0-8.013,5.575-14.75,13.05-16.535c0.156-0.037,0.313-0.072,0.47-0.105c0.51-0.11,0.85,0.51,0.54,0.92	c-0.103,0.129-0.204,0.26-0.303,0.393c-1.736,2.334-2.757,5.214-2.757,8.327c0,6,3.42,10.33,7.73,12.51	c1.89,0.96,4.02,1.49,6.27,1.49c2.405,0,4.659-0.61,6.64-1.678c0.186-0.1,0.369-0.204,0.55-0.312	C41.28,30.04,41.84,30.47,41.67,30.97z M25.64,41.3c6.53,0,12.15-3.93,14.64-9.55c-2,0.99-4.25,1.55-6.64,1.55	c-8.27,0-15-6.73-15-15c0-3.1,0.94-5.97,2.55-8.36C14.52,11.87,9.64,18.02,9.64,25.3C9.64,34.12,16.82,41.3,25.64,41.3z"/></svg>