<svg  xmlns="http://www.w3.org/2000/svg"  viewBox="0 0 24 24" width="64px" height="64px"><path fill="#fff" d="M12,4c-4.411,0-8,3.589-8,8s3.589,8,8,8s8-3.589,8-8S16.411,4,12,4z M12,19c-3.859,0-7-3.14-7-7s3.141-7,7-7	s7,3.14,7,7S15.859,19,12,19z"/><path fill="#fff" d="M9.723,3.916c0.229,0.152,0.54,0.092,0.693-0.139L12,1.401l1.584,2.376C13.681,3.922,13.839,4,14,4	c0.096,0,0.192-0.027,0.277-0.084c0.229-0.153,0.292-0.463,0.139-0.693l-2-3c-0.186-0.278-0.646-0.278-0.832,0l-2,3	C9.431,3.453,9.493,3.763,9.723,3.916z"/><path fill="#fff" d="M12,24c0.167,0,0.323-0.083,0.416-0.223l2-3c0.153-0.23,0.091-0.54-0.139-0.693	c-0.229-0.152-0.539-0.092-0.693,0.139L12,22.599l-1.584-2.376c-0.154-0.231-0.466-0.292-0.693-0.139	c-0.229,0.153-0.292,0.463-0.139,0.693l2,3C11.677,23.917,11.833,24,12,24z"/><path fill="#fff" d="M20.777,9.584c-0.228-0.152-0.539-0.092-0.693,0.139c-0.153,0.23-0.091,0.54,0.139,0.693L22.599,12	l-2.376,1.584c-0.229,0.153-0.292,0.463-0.139,0.693c0.097,0.145,0.255,0.223,0.416,0.223c0.096,0,0.192-0.027,0.277-0.084l3-2	C23.916,12.323,24,12.167,24,12s-0.084-0.323-0.223-0.416L20.777,9.584z"/><path fill="#fff" d="M3.223,14.416C3.308,14.473,3.404,14.5,3.5,14.5c0.161,0,0.319-0.078,0.416-0.223	c0.153-0.23,0.091-0.54-0.139-0.693L1.401,12l2.376-1.584c0.229-0.153,0.292-0.463,0.139-0.693C3.762,9.492,3.45,9.431,3.223,9.584	l-3,2C0.084,11.677,0,11.833,0,12s0.084,0.323,0.223,0.416L3.223,14.416z"/><path fill="#fff" d="M20.485,3.515c-0.118-0.118-0.289-0.17-0.451-0.137l-3.535,0.707c-0.271,0.054-0.447,0.317-0.393,0.588	c0.055,0.271,0.328,0.446,0.588,0.392l2.8-0.56l-0.56,2.8c-0.055,0.271,0.121,0.534,0.393,0.588c0.032,0.007,0.065,0.01,0.099,0.01	c0.233,0,0.441-0.164,0.489-0.402l0.707-3.536C20.655,3.802,20.604,3.633,20.485,3.515z"/><path fill="#fff" d="M4.673,16.106c-0.259-0.055-0.533,0.121-0.588,0.392l-0.707,3.536c-0.033,0.164,0.019,0.333,0.137,0.452	c0.095,0.095,0.223,0.146,0.354,0.146c0.032,0,0.065-0.003,0.098-0.01l3.535-0.707c0.271-0.054,0.447-0.317,0.393-0.588	c-0.055-0.272-0.331-0.446-0.588-0.392l-2.8,0.56l0.56-2.8C5.12,16.423,4.944,16.16,4.673,16.106z"/><path fill="#fff" d="M19.327,16.106c-0.271,0.054-0.447,0.317-0.393,0.588l0.56,2.8l-2.8-0.56	c-0.26-0.053-0.533,0.12-0.588,0.392c-0.055,0.271,0.121,0.534,0.393,0.588l3.535,0.707c0.032,0.006,0.065,0.01,0.098,0.01	c0.131,0,0.259-0.052,0.354-0.146c0.118-0.118,0.17-0.288,0.137-0.452l-0.707-3.536C19.86,16.227,19.587,16.05,19.327,16.106z"/><path fill="#fff" d="M7.894,4.673c0.055-0.271-0.121-0.534-0.393-0.588L3.966,3.378C3.803,3.347,3.633,3.397,3.515,3.515	c-0.118,0.118-0.17,0.288-0.137,0.452l0.707,3.536C4.133,7.74,4.341,7.904,4.574,7.904c0.033,0,0.066-0.003,0.099-0.01	C4.944,7.84,5.12,7.577,5.065,7.306l-0.56-2.8l2.8,0.56C7.563,5.12,7.839,4.945,7.894,4.673z"/></svg>